<svg width="25" height="31" viewBox="0 0 25 31" fill="none" xmlns="http://www.w3.org/2000/svg">
<path d="M18.4056 12.7817C19.2367 9.52766 17.2729 6.21601 14.0188 5.38475C10.7648 4.55362 7.45321 6.51757 6.62186 9.77148C5.79059 13.0255 7.75461 16.3371 11.0086 17.1684L10.2192 20.2587C5.25853 18.9913 2.2644 13.9428 3.53164 8.98206C4.79898 4.02149 9.8476 1.02742 14.8082 2.29453C19.7689 3.56178 22.7629 8.61042 21.4958 13.5711C20.2285 18.5319 15.1799 21.5259 10.2192 20.2587L11.0086 17.1684C14.2627 17.9997 17.5743 16.0358 18.4056 12.7817Z" fill="#123A52"/>
<path d="M14.2021 19.6809V22.8704H11.0508C6.70923 22.8704 3.18945 26.3901 3.18945 30.7317H0C0 24.6287 4.94777 19.6809 11.0508 19.6809H14.2021Z" fill="#123A52"/>
<path d="M10.79 19.6809V22.8704H13.9414C18.283 22.8704 21.8027 26.3901 21.8027 30.7317H24.9922C24.9922 24.6287 20.0444 19.6809 13.9414 19.6809H10.79Z" fill="#123A52"/>
</svg>
