<?xml version="1.0" encoding="UTF-8"?>
<svg id="_Слой_1" data-name="Слой_1" xmlns="http://www.w3.org/2000/svg" version="1.1" viewBox="0 0 250.19 251.45">
  <!-- Generator: Adobe Illustrator 30.8.1, SVG Export Plug-In . SVG Version: 2.1.4 Build 1)  -->
  <defs>
    <style>
      .st0 {
        fill: none;
        stroke: #1f3d86;
        stroke-miterlimit: 10;
        stroke-width: .25px;
      }
    </style>
  </defs>
  <path class="st0" d="M5.32,56.61c-11.01,47.06-14.59,109.56,28.63,143.39l-24.61,31.44c9.11,3.75,24.54,9.49,43.17,14.41,2.98.79,6.04,1.55,9.17,2.28,47.06,11.01,109.56,14.59,143.39-28.63l27.16,21.26c3.24-8.76,6.99-20.01,10.36-32.77.79-2.98,1.55-6.04,2.28-9.17,11.01-47.06,14.59-109.56-28.63-143.39l24.61-31.44c-9.11-3.75-24.54-9.49-43.17-14.41-2.98-.79-6.04-1.55-9.18-2.28C141.44-3.71,78.94-7.29,45.12,35.93L17.96,14.67c-3.24,8.76-6.99,20.01-10.36,32.77-.79,2.98-1.55,6.04-2.28,9.17Z"/>
  <path class="st0" d="M13.24,57.96C2.73,102.88-.68,162.53,40.57,194.82l-23.49,30.01c8.69,3.58,23.42,9.06,41.2,13.75,2.85.75,5.77,1.48,8.76,2.18,44.92,10.51,104.57,13.93,136.85-27.32l25.92,20.29c3.09-8.36,6.67-19.1,9.88-31.27.75-2.84,1.48-5.77,2.18-8.76,10.51-44.92,13.93-104.57-27.32-136.85l23.49-30.01c-8.69-3.58-23.42-9.06-41.2-13.75-2.85-.75-5.77-1.48-8.76-2.18C143.16.39,83.51-3.02,51.23,38.22l-25.92-20.29c-3.09,8.36-6.67,19.1-9.88,31.27-.75,2.85-1.48,5.77-2.18,8.76Z"/>
  <path class="st0" d="M21.17,59.32c-10.01,42.77-13.26,99.58,26.02,130.32l-22.36,28.57c8.28,3.41,22.3,8.63,39.24,13.1,2.71.72,5.49,1.41,8.34,2.08,42.77,10.01,99.58,13.26,130.32-26.02l24.68,19.32c2.94-7.96,6.35-18.18,9.41-29.78.71-2.71,1.41-5.49,2.08-8.34,10.01-42.77,13.26-99.58-26.02-130.32l22.36-28.57c-8.28-3.41-22.3-8.63-39.24-13.1-2.71-.72-5.49-1.41-8.34-2.08C144.88,4.49,88.08,1.24,57.34,40.52l-24.68-19.32c-2.94,7.96-6.35,18.18-9.41,29.78-.72,2.71-1.41,5.49-2.08,8.34Z"/>
  <path class="st0" d="M29.09,60.67c-9.51,40.63-12.6,94.58,24.71,123.79l-21.24,27.14c7.86,3.24,21.18,8.19,37.27,12.44,2.57.68,5.22,1.34,7.92,1.97,40.63,9.5,94.58,12.6,123.79-24.71l23.44,18.35c2.8-7.56,6.03-17.27,8.94-28.29.68-2.57,1.34-5.22,1.97-7.92,9.51-40.63,12.6-94.58-24.71-123.79l21.24-27.14c-7.86-3.24-21.18-8.19-37.27-12.44-2.57-.68-5.22-1.34-7.92-1.97-40.63-9.51-94.58-12.6-123.79,24.71l-23.44-18.35c-2.8,7.56-6.03,17.27-8.94,28.29-.68,2.57-1.34,5.22-1.97,7.92Z"/>
  <path class="st0" d="M37.01,62.02c-9,38.48-11.93,89.59,23.41,117.25l-20.12,25.71c7.45,3.07,20.06,7.76,35.3,11.78,2.44.64,4.94,1.27,7.5,1.87,38.48,9,89.59,11.93,117.25-23.41l22.21,17.38c2.65-7.16,5.72-16.36,8.47-26.79.64-2.44,1.27-4.94,1.87-7.5,9-38.48,11.93-89.59-23.41-117.25l20.12-25.71c-7.45-3.07-20.06-7.76-35.3-11.78-2.44-.64-4.94-1.27-7.5-1.87-38.48-9-89.59-11.93-117.25,23.41l-22.21-17.38c-2.65,7.17-5.72,16.36-8.47,26.79-.64,2.44-1.27,4.94-1.87,7.5Z"/>
  <path class="st0" d="M44.94,63.37c-8.5,36.34-11.27,84.6,22.1,110.72l-19,24.27c7.03,2.9,18.95,7.33,33.34,11.13,2.3.61,4.67,1.2,7.08,1.76,36.34,8.5,84.6,11.27,110.72-22.1l20.97,16.41c2.5-6.76,5.4-15.45,8-25.3.61-2.3,1.2-4.67,1.76-7.08,8.5-36.34,11.27-84.6-22.1-110.72l19-24.27c-7.03-2.9-18.95-7.33-33.34-11.13-2.3-.61-4.67-1.2-7.08-1.76-36.34-8.5-84.6-11.27-110.72,22.1l-20.97-16.41c-2.5,6.77-5.4,15.45-8,25.3-.61,2.3-1.2,4.67-1.76,7.08Z"/>
  <path class="st0" d="M52.86,64.73c-8,34.19-10.6,79.6,20.8,104.18l-17.88,22.84c6.62,2.73,17.83,6.9,31.37,10.47,2.17.57,4.39,1.13,6.67,1.66,34.19,8,79.6,10.6,104.18-20.8l19.73,15.44c2.35-6.37,5.08-14.54,7.52-23.81.57-2.17,1.13-4.39,1.66-6.67,8-34.19,10.6-79.6-20.8-104.18l17.88-22.84c-6.62-2.73-17.83-6.9-31.37-10.47-2.17-.57-4.39-1.13-6.67-1.66-34.19-8-79.6-10.6-104.18,20.8l-19.73-15.44c-2.35,6.37-5.08,14.54-7.52,23.81-.57,2.17-1.13,4.39-1.66,6.67Z"/>
  <path class="st0" d="M60.79,66.08c-7.5,32.05-9.94,74.61,19.5,97.65l-16.76,21.41c6.2,2.55,16.71,6.46,29.4,9.81,2.03.54,4.11,1.06,6.25,1.56,32.05,7.5,74.61,9.94,97.65-19.5l18.49,14.47c2.21-5.97,4.76-13.63,7.05-22.31.54-2.03,1.06-4.12,1.56-6.25,7.5-32.05,9.94-74.61-19.5-97.65l16.76-21.41c-6.2-2.55-16.71-6.46-29.4-9.81-2.03-.54-4.12-1.06-6.25-1.56-32.05-7.5-74.61-9.94-97.65,19.5l-18.49-14.48c-2.21,5.97-4.76,13.63-7.05,22.31-.54,2.03-1.06,4.12-1.56,6.25Z"/>
  <path class="st0" d="M68.71,67.43c-7,29.9-9.27,69.62,18.19,91.11l-15.64,19.98c5.79,2.38,15.59,6.03,27.43,9.16,1.89.5,3.84.99,5.83,1.45,29.9,7,69.62,9.27,91.11-18.19l17.26,13.51c2.06-5.57,4.44-12.71,6.58-20.82.5-1.89.99-3.84,1.45-5.83,7-29.9,9.27-69.62-18.19-91.11l15.64-19.98c-5.79-2.38-15.59-6.03-27.43-9.16-1.89-.5-3.84-.99-5.83-1.45-29.9-7-69.62-9.27-91.11,18.19l-17.26-13.51c-2.06,5.57-4.44,12.71-6.58,20.82-.5,1.89-.99,3.84-1.45,5.83Z"/>
  <path class="st0" d="M76.63,68.78c-6.5,27.76-8.61,64.63,16.89,84.58l-14.51,18.54c5.37,2.21,14.47,5.6,25.47,8.5,1.76.46,3.56.92,5.41,1.35,27.76,6.49,64.63,8.61,84.58-16.89l16.02,12.54c1.91-5.17,4.12-11.8,6.11-19.33.46-1.76.91-3.56,1.35-5.41,6.49-27.76,8.61-64.63-16.89-84.58l14.51-18.54c-5.37-2.21-14.47-5.6-25.47-8.5-1.76-.46-3.57-.91-5.41-1.35-27.76-6.5-64.63-8.61-84.58,16.89l-16.02-12.54c-1.91,5.17-4.12,11.8-6.11,19.33-.46,1.76-.92,3.56-1.35,5.41Z"/>
  <path class="st0" d="M84.56,70.14c-5.99,25.62-7.94,59.63,15.58,78.05l-13.39,17.11c4.96,2.04,13.36,5.17,23.5,7.84,1.62.43,3.29.84,4.99,1.24,25.62,5.99,59.63,7.94,78.05-15.58l14.78,11.57c1.76-4.77,3.8-10.89,5.64-17.83.43-1.62.84-3.29,1.24-4.99,5.99-25.61,7.94-59.63-15.58-78.05l13.39-17.11c-4.96-2.04-13.36-5.17-23.5-7.84-1.62-.43-3.29-.84-4.99-1.24-25.61-5.99-59.63-7.94-78.05,15.58l-14.78-11.57c-1.76,4.77-3.8,10.89-5.64,17.83-.43,1.62-.84,3.29-1.24,4.99Z"/>
  <path class="st0" d="M92.48,71.49c-5.49,23.47-7.28,54.64,14.28,71.51l-12.27,15.68c4.54,1.87,12.24,4.73,21.53,7.19,1.49.39,3.01.77,4.58,1.14,23.47,5.49,54.64,7.28,71.51-14.28l13.54,10.6c1.61-4.37,3.49-9.98,5.17-16.34.39-1.49.77-3.01,1.14-4.58,5.49-23.47,7.28-54.64-14.28-71.51l12.27-15.68c-4.54-1.87-12.24-4.73-21.53-7.19-1.49-.39-3.01-.77-4.58-1.14-23.47-5.49-54.64-7.28-71.51,14.28l-13.54-10.6c-1.62,4.37-3.49,9.98-5.17,16.34-.39,1.49-.77,3.01-1.14,4.58Z"/>
  <path class="st0" d="M100.4,72.84c-4.99,21.33-6.61,49.65,12.97,64.98l-11.15,14.25c4.13,1.7,11.12,4.3,19.56,6.53,1.35.36,2.74.7,4.16,1.04,21.33,4.99,49.65,6.61,64.98-12.97l12.31,9.63c1.47-3.97,3.17-9.07,4.69-14.85.36-1.35.7-2.74,1.04-4.16,4.99-21.33,6.61-49.65-12.97-64.98l11.15-14.25c-4.13-1.7-11.12-4.3-19.56-6.53-1.35-.36-2.74-.7-4.16-1.03-21.33-4.99-49.65-6.61-64.98,12.97l-12.31-9.63c-1.47,3.97-3.17,9.07-4.69,14.85-.36,1.35-.7,2.74-1.04,4.16Z"/>
  <path class="st0" d="M108.33,74.19c-4.49,19.18-5.95,44.66,11.67,58.44l-10.03,12.81c3.71,1.53,10,3.87,17.6,5.87,1.21.32,2.46.63,3.74.93,19.18,4.49,44.66,5.95,58.44-11.67l11.07,8.66c1.32-3.57,2.85-8.16,4.22-13.35.32-1.21.63-2.46.93-3.74,4.49-19.18,5.95-44.66-11.67-58.44l10.03-12.81c-3.71-1.53-10-3.87-17.6-5.87-1.21-.32-2.46-.63-3.74-.93-19.18-4.49-44.66-5.95-58.44,11.67l-11.07-8.66c-1.32,3.57-2.85,8.16-4.22,13.35-.32,1.22-.63,2.46-.93,3.74Z"/>
  <path class="st0" d="M116.25,75.55c-3.99,17.04-5.28,39.66,10.36,51.91l-8.91,11.38c3.3,1.36,8.88,3.44,15.63,5.22,1.08.28,2.19.56,3.32.83,17.04,3.99,39.66,5.28,51.91-10.36l9.83,7.69c1.17-3.17,2.53-7.24,3.75-11.86.28-1.08.56-2.19.83-3.32,3.99-17.04,5.28-39.66-10.36-51.91l8.91-11.38c-3.3-1.36-8.88-3.44-15.63-5.22-1.08-.28-2.19-.56-3.32-.83-17.04-3.99-39.66-5.28-51.91,10.36l-9.83-7.7c-1.17,3.17-2.53,7.24-3.75,11.86-.29,1.08-.56,2.19-.83,3.32Z"/>
  <path class="st0" d="M124.18,76.9c-3.48,14.89-4.62,34.67,9.06,45.38l-7.79,9.95c2.88,1.19,7.76,3,13.66,4.56.94.25,1.91.49,2.9.72,14.89,3.48,34.67,4.62,45.38-9.06l8.59,6.73c1.02-2.77,2.21-6.33,3.28-10.37.25-.94.49-1.91.72-2.9,3.48-14.89,4.62-34.67-9.06-45.38l7.79-9.95c-2.88-1.19-7.76-3-13.66-4.56-.94-.25-1.91-.49-2.9-.72-14.89-3.48-34.67-4.62-45.38,9.06l-8.59-6.73c-1.03,2.77-2.21,6.33-3.28,10.37-.25.94-.49,1.91-.72,2.9Z"/>
  <path class="st0" d="M132.1,78.25c-2.98,12.75-3.95,29.68,7.75,38.84l-6.67,8.52c2.47,1.02,6.65,2.57,11.69,3.9.81.21,1.64.42,2.49.62,12.75,2.98,29.68,3.95,38.84-7.75l7.36,5.76c.88-2.37,1.89-5.42,2.81-8.88.21-.81.42-1.64.62-2.49,2.98-12.75,3.95-29.68-7.75-38.84l6.67-8.52c-2.47-1.02-6.65-2.57-11.69-3.9-.81-.21-1.64-.42-2.49-.62-12.75-2.98-29.68-3.95-38.84,7.75l-7.36-5.76c-.88,2.37-1.89,5.42-2.81,8.88-.21.81-.42,1.64-.62,2.49Z"/>
  <path class="st0" d="M140.02,79.6c-2.48,10.6-3.29,24.69,6.45,32.31l-5.54,7.08c2.05.85,5.53,2.14,9.73,3.25.67.18,1.36.35,2.07.51,10.6,2.48,24.69,3.29,32.31-6.45l6.12,4.79c.73-1.97,1.58-4.51,2.33-7.38.18-.67.35-1.36.51-2.07,2.48-10.6,3.29-24.69-6.45-32.31l5.54-7.08c-2.05-.85-5.53-2.14-9.73-3.25-.67-.18-1.36-.35-2.07-.51-10.6-2.48-24.69-3.29-32.31,6.45l-6.12-4.79c-.73,1.97-1.58,4.51-2.33,7.38-.18.67-.35,1.36-.51,2.07Z"/>
  <path class="st0" d="M147.95,80.96c-1.98,8.46-2.62,19.69,5.15,25.77l-4.42,5.65c1.64.67,4.41,1.71,7.76,2.59.54.14,1.09.28,1.65.41,8.46,1.98,19.69,2.62,25.77-5.15l4.88,3.82c.58-1.57,1.26-3.6,1.86-5.89.14-.54.28-1.09.41-1.65,1.98-8.46,2.62-19.69-5.15-25.77l4.42-5.65c-1.64-.67-4.41-1.71-7.76-2.59-.54-.14-1.09-.28-1.65-.41-8.46-1.98-19.69-2.62-25.77,5.15l-4.88-3.82c-.58,1.58-1.26,3.6-1.86,5.89-.14.54-.28,1.09-.41,1.65Z"/>
  <path class="st0" d="M155.87,82.31c-1.48,6.31-1.96,14.7,3.84,19.24l-3.3,4.22c1.22.5,3.29,1.27,5.79,1.93.4.11.81.21,1.23.31,6.31,1.48,14.7,1.96,19.24-3.84l3.64,2.85c.43-1.18.94-2.68,1.39-4.4.11-.4.21-.81.31-1.23,1.48-6.31,1.96-14.7-3.84-19.24l3.3-4.22c-1.22-.5-3.29-1.27-5.79-1.93-.4-.11-.81-.21-1.23-.31-6.31-1.48-14.7-1.96-19.24,3.84l-3.64-2.85c-.43,1.18-.94,2.68-1.39,4.4-.11.4-.21.81-.31,1.23Z"/>
</svg>
