<?xml version="1.0" encoding="UTF-8"?>
<svg id="_Слой_1" data-name="Слой_1" xmlns="http://www.w3.org/2000/svg" xmlns:xlink="http://www.w3.org/1999/xlink" version="1.1" viewBox="0 0 841.89 595.28">
  <!-- Generator: Adobe Illustrator 30.8.1, SVG Export Plug-In . SVG Version: 2.1.4 Build 1)  -->
  <defs>
    <style>
      .st0 {
        fill: none;
      }

      .st1 {
        fill: #abcded;
      }

      .st2 {
        clip-path: url(#clippath);
      }
    </style>
    <clipPath id="clippath">
      <rect class="st0" x="26.14" y="21.52" width="773.3" height="552.23"/>
    </clipPath>
  </defs>
  <g class="st2">
    <g>
      <path class="st1" d="M13.01,170.99c-.15-.49-.57-.53-.88-.56v-3.27c.45.06.7-.08.81-.17.12-.1,0-.54-.23-.56l-.59-.03v-.63s4.05.33,4.05.33c5.88,1.05,11.71,1.83,17.38,3.6l9.91,4.14c4.31,1.8,7.97,4.51,11.83,7.04l5.88,3.86c3.8,3.04,7.42,6.15,11.88,8.26,5.18,2.45,10.4,4.39,16.02,5.8,4.24,1.06,9.08.78,12.98-.9,4.11-1.77,7.38-4.4,10.87-6.89,3.84-2.75,5.9-6.52,6.4-11.17.72-6.66-.87-12.98-5.52-17.89l-5.68-6c-3.6-3.81-6.52-7.79-9.09-12.35l-7.38-13.06-4.72-7.84c-1.05-1.74-2.35-2.96-3.68-4.43l-4.02-4.44c-1.32-1.46-2.42-3.01-4.19-3.83-.13-.33-.41-.51-.74-.58-2.23-2.25-4.79-4.16-7.43-6.2l-9.8-7.57c-2.67-2.07-5.79-2.83-9.04-3.62l-11.45-2.81c-2.71-.66-5.19-.7-7.97-1.53-3.41-1.02-6.76-2.93-9.07-5.71-.63-.76-.13-2.4.12-3.15,1.79-.7,3.75-.71,5.06.85,3.85.61,7.13,2.59,10.88,3.57l12.43,3.23c6.26,1.63,11.66,3.94,16.68,8.01l12.92,10.45c3.09,2.5,5.6,5.36,8.25,8.29,2.02,2.23,4.23,4.11,5.76,6.74l6.68,11.49c1.07,1.85,2.37,3.21,3.25,5.25,1.75,4.04,3.95,7.88,7.1,11,3.6,3.56,5.64,6.69,8.32,10.25,1.1,1.47,2.16,2.52,3.22,4.17,4.86,7.56,6.41,17.53,2.16,25.78-2.67,5.18-7.68,8.28-12.31,11.42-3.65,2.47-9.2,5.4-13.27,5.48-3.28.06-6.98,1.04-10.29-.07-7.47-2.51-14.49-5.83-21.15-10.22-6.19-4.08-11.55-8.89-18.18-12.46-1.96-1.06-3.42-2.58-5.78-3.11-1.1-.25-2.22-.96-3.27-1.41-3.88-1.66-8.06-1.8-12-3.09-4.44-1.46-8.54-3.29-13.13-3.44Z"/>
      <path class="st1" d="M397.34,35.72c.32-.07.67-.04.89-.24,10.71-1.53,20.64-.48,28.6,7.53,5.05,5.08,8.16,11.41,8.53,18.54.01.26.05.55.21.83v7.62c-.13.24-.21.57-.24.85l-.48,5.56c-.39.18-.25.64-.3.92-.82,5.47-2.73,10.67-4.4,16.12l-2.56,8.34-2.89,17.4c-.27.28-.24.85-.26,1.27l-.33,6.45-.19,6.84c.36,5.9,1.82,14.08,5.12,18.38l2.29,2.97c6.06,7.88,19.89,12,29.89,13.75l18.17,3.18c18.5,3.23,36.1,10.12,51.99,20.07,5.67,3.55,10.41,7.78,14.55,12.97,5.48,6.88,8.33,15.29,9.31,23.8.04.37-.34,1.05.28,1.28l.05,1.97c.01.57-.03,1.15.27,1.71.64,10.45-3.49,21.9-8.06,31.74-4.48,9.65-8,19.27-10.8,29.52-1.1,4.01-2.49,7.7-2.64,11.66l-.13,3.32.02,2.69c0,.57-.13,1.16.18,1.71.09,5.72,2.81,17.6,5.62,22.11,5.25,8.43,18.33,22.3,27.11,26.79l17.34,8.87,15.42,7.18,11.96,6.55c3.45,1.89,6.16,4.53,8.63,7.52,3.45,4.18,2.9,9.46-.55,13.66-6.48,7.88-18.83,9.27-29.16,10.29l-16.63.16c-.3-.2-.6-.21-.91-.23l-18.48-1.02c-.28-.18-.57-.2-.87-.21-10.04-.56-20.12-1.74-29.63-5.5l-3.57-1.41c-7.22-3.48-14.42-6.52-22.11-9l-7.92-2.55-17.42-4.65-4.39-1.29-4.56-1.52-4.88-1.77-9-4.03c-3.03-1.81-5.93-2.71-9.2-3.88-11.97-4.27-24.1-6.3-36.97-5.55-10.32,1.73-19.97,5.34-29.23,10.14l-11.19,5.8-22.15,12.53c-13.63,7.71-38.3,11.42-54.68,13.94-12.88,1.98-24.93,4.99-37.29,9l-22,7.14-17.83,6.28-16.79,5.4c-11.64,3.74-23.41,5.88-35.65,6.7-5.64.38-10.91-.53-16.15-2.41l-4.25-1.53-7.24-3.59-5.4-2.99c-6.91-3.82-12.94-8.53-18.4-14.23l-7.1-7.4c-1.39-1.45-2.29-3.18-4.31-3.84l-7.38-2.44c-6.08-2.01-12.26-1.66-18.44-.22-3.98.93-8.04,1.45-11.31,4.17-2.3,1.91-5.31,3.37-6.96,5.88l-4.83,7.34c-1.29,1.97-2.16,4.59-4.41,5.65l-5.99,2.81c-1.57.73-6.91.89-7.39-1.16v-.94c.17-4.63,5.34-.99,9.16-4.51,4.68-4.31,6.82-10.54,9.6-13.04l2.98-2.68c3.18-2.86,6.81-5.65,10.94-7.04l12.55-2.73c5.08-1.11,10.3-.16,15.31,1.07l8.69,3.2c.18.07,4.09,3.19,5.8,5.26,9.72,11.79,22.17,20.71,36.24,26.65l4.03,1.7c3.78,1.6,7.57,2.36,11.85,2.08,12.14-.8,24.05-2.65,35.58-6.48l24.85-8.27,27.83-9.34c15.49-5.2,30.89-8.87,47.07-11.32,9.96-1.51,19.44-3.14,29.19-5.51,8.53-2.08,16.38-5.07,23.82-9.69,1.18-.74,2.48-.92,3.46-2.16l-13.54-.26c-7.59-.14-15-.41-22.39-1.84l-18.33-3.56c-13.05-2.53-31.96-4.71-44.11-.85-9.97,3.17-22.46,11.84-30.43,18.8l-4.96,4.34-9.12,7.42c-12.05,9.8-22.15,13.48-37.54,14.52-8.25.56-16.22-.65-24.25-2.72-6.41-1.65-12.53-3.43-18.27-6.71-7.68-4.39-14.8-9.09-21.76-14.53l-7.62-4.44c-3.49-2.03-7.29-3.15-11.09-4.31l-3.77-1.15-12.24-2.04c-3-.04-6.36.71-9.17,1.54l-20.81,6.17-8.69,3.4c-.71.28-1.79.02-2.18-.39-.41-.43-.75-1.13-.71-2.1.06-1.2,1.29-2.64,2.55-2.99,3.08-.87,5.46-2.66,8.41-3.74l11.17-4.12c4.19-1.55,8.63-1.52,12.87-2.51,4.48-1.04,8.28-.74,12.71.08,8.07,1.49,15.69,3.53,23.1,7.18,1.31.64,2.31.64,3.63,1.67l5.02,3.87c7.42,5.72,15.16,11.15,23.71,15.3,7.79,3.78,16.16,5.45,24.61,6.93,6.73,1.18,13.25.63,19.97-.38,6.43-.97,12.47-2.88,17.95-6.41,7.74-4.99,14.7-10.62,21.5-16.77,3.1-2.8,6.14-5.07,9.48-7.51,15.35-11.22,27.11-16.79,46.71-15.61,8.79.53,17.19,1.46,25.82,3.27l11.28,2.36c6.35,1.33,12.44,1.52,18.88,1.5,5.71-.02,11.3.99,16.92-.22l16.53-3.56,7.17-2.51c5.45-1.91,9.51-5.62,11.68-11.08,2.09-5.25,3.83-10.7,4.43-16.43,1.29-12.31-3.56-25.66-7.95-37.29-3.73-9.89-4.09-20.49.13-30.28,1.6-3.72,4.67-6.28,7.85-8.62,7.83-5.74,13.77-8.68,23.32-10.93,10.13-2.38,21.89.87,27.37,9.66,1.58,2.53,1.57,5.34,2.46,8.11,3.52,10.91,6.33,21.69,8.49,32.94l3.64,14.08c2.02,7.83,8.5,12.54,14.81,16.77l17.87,12.01c5.01,3.36,10.17,6.54,16.38,7.13,6.32.6,10.85-11.55,7.94-22.26-2.68-9.85-6.56-18.97-10.68-28.35-4.89-11.13-8.13-22.37-9.89-34.46-.87-5.98-.56-11.84.33-17.9,1.16-7.9,1.64-15.53.81-23.5-.39-3.76-1.31-7.26-3.43-10.42-3.45-5.14-5.22-10.13-13.05-11.62l-5.73-1.09-23.21-.47c-6.17-.13-11.56-1.51-16.64-4.85l-6.59-4.34c-5.21-3.43-10.75-6.11-15.53-10.22-9.77-8.39-14.63-19.46-20.17-30.6l-4.15-8.35-6.07-11.28-3.27-5.61c-3.14-5.39-6.38-10.45-9.69-15.73l-5.92-9.44c-3.35-5.34-10.57-14.76-15.08-18.47l-4.42-3.64c-7.48-6.15-18.64-8.04-27.95-5.76l-12.36,3.02c-13.28,3.24-21.45,1.9-34.32-1.64-7.79-2.14-16.12-3.69-23.21.59-2.69,1.62-4.2,4.46-5.05,7.53-2.74,9.82-4.88,19.55-7.1,29.54-1.48,6.65-1.61,12.88-1.04,19.61l1.53,18.18c.66,7.89,5.36,13.96,12.62,17.08,3.25,1.4,6.34,2.68,10.07,2.79,8.01.22,15.28,2.68,22.08,6.99,7.53,4.78,14.27,10.21,21.18,15.85,4.58,3.74,8.87,7.36,12.63,11.97,5.87,7.2,10.84,14.88,14.25,23.62l8.44,27.48c.73,2.38,1.3,4.41,1.81,6.84l.96,4.55c.78,3.72,1.48,7.7.15,11.47-1.94,5.49-5.31,10.25-8.9,14.82l-10.82,13.79-8.89,9.65c-2.56,2.78-5.5,5.12-6.92,8.87-3.19,10.25,1.16,19.34,8.01,27.5l-2.49-9.77c-.71-2.81-.58-5.91,0-8.71,1.34-6.47,4.13-11.9,7.6-17.32l7.87-12.31,7.63-10.56,5.85-7.06c2.31-2.79,5.19-5.21,6.8-8.45l3.49-7.04,2.94-10.8c1.86-6.83,6.79-17.42,13.56-17.86,6-.39,11.51,3.45,14.09,8.76,6.43,13.25-.82,27.1.86,37.18.52,3.08.68,6.43,2.05,9.25l2.47,5.1c3.77,6.36,6,12.93,6.65,20.34.98,11.15-1.81,22.23-9.09,30.76-1.63,1.91-3.19,3.79-5.59,4.93-4.9,2.33-9.97,4.86-15.45,5.71l-17.81,2.75c-8.8.79-17.44-1.22-25.48-4.6-13.87-5.82-25.05-26.03-18.35-40.72l1.64-2.8c2.01-3.43,4.94-5.98,7.56-8.91l5.34-5.97,5.26-4.8c2.51-2.29,4.27-4.82,6.23-7.56,3.42-4.76,6.12-9.69,8.26-15.15,1.51-3.85,1.57-7.36.33-11.36l-4.49-14.47-5.53-18.75c-2.29-7.77-6.33-14.63-11.14-21.04l-3.86-5.14c-4.73-4.95-9.63-9.35-15.08-13.5l-12.38-9.42-5.69-3.67c-3.82-2.47-7.81-4.35-12.34-4.91l-8.99-1.11c-.19-.41-.62-.26-.9-.33-4.24-1.04-8.69-2.2-12.26-5.07l-4.25-3.43c-1.43-1.15-2.61-2.84-3.62-4.39-3.96-6.05-4.74-18.71-5.02-26.82l-.27-7.86.03-1.69c.22-13.83,4.29-27.69,7.77-41.52,1.23-4.89,3.62-9.8,8.13-12.34,7.18-4.04,15.76-4.23,23.65-2.08,7.79,2.13,18.19,5.16,25.85,4.28,5.44-.63,10.53-1.98,15.82-3.43,7.61-2.1,15.26-2.91,22.88-1.7.14.31.59.33.94.24,13.6,2.69,28.7,19.2,35.88,31.06l2.93,4.83c5.22,7.62,10.03,15.24,14.47,23.34l6.43,11.76,12.59,25.27c3.77,7.57,9.47,13.21,16.62,17.74l17.74,11.23c1.76,1.11,3.95,2.22,5.98,2.52,10.83,1.59,22.94-.65,35.16,1.92,6.73,1.42,11.66,4.9,15.46,10.47,3.73,5.46,6.48,11.41,6.46,18.06l.16,2.07.06,9.64c-.11.27-.21.6-.2.88.36,6.42-3.11,15.64-1.39,26.33,1.21,7.55,2.84,14.73,4.99,22.02l4.68,11.46,3.76,9.16c2.66,6.49,5.23,13.05,6.95,19.67-.11.46-.1.99.23,1.31.79,4.1.59,8.69.36,12.82-.15.3-.22.59-.22.9l-1.9,5.41c-1.32,2.63-3.5,5.2-6.07,6.69-7.73,4.49-18.41-1.77-25.69-6.75l-9.14-6.24-14.97-10.38c-4.21-2.92-9.55-12.99-10.78-18.25l-5.2-22.36-3.94-14.14-2.28-7.79-1.93-6.51c-3.49-4.11-8.22-6.37-13.37-7.04-.36-.2-.81-.15-1.24-.16l-1.53-.05c-.62-.02-1.14.04-1.71.19l-10.8,2.75c-6.23,2.35-11.95,6-17.05,10.2-2.7,2.22-4.02,5.03-4.84,8.21-1.93,7.49-1.13,14.74,1.4,22l4.59,13.2c2.29,6.58,3.58,13.25,3.8,20.01.02.56-.13,1.16.19,1.67.02.35.09.83-.03,1.17-.24.69-.25,1.39-.2,2.11.29,4.38-2.8,15.96-5.18,20.58-.48.94-1.24,1.7-.78,2.75-.67,0-1.31.31-1.32,1.25.86.16,1.21-.55,1.67-.72l6.57-2.4c5.26-1.92,10.52-3.39,15.93-3.8l2.11-.16,10.4-.07c.29.19.6.12.9.15,9.9.88,19.75,2.84,29.03,6.95l14.79,6.56c3.87,1.72,7.67,2.87,11.77,3.99l20.57,5.6c9.02,2.45,17.22,6.04,25.75,9.72l10.17,4.39c6.68,1.93,13.39,2.92,20.16,3.37.27.18.59.13.89.15l14.45.97,18.16.82c9.53.43,18.77-1.22,27.64-4.64,4.95-1.91,9.31-7.15,6.57-11.16-4.32-6.32-20.66-13.05-29.14-17.14l-18.25-8.82c-9.82-5.28-18.43-11.86-25.45-20.5l-6.71-8.24c-3.41-4.19-4.65-9.31-6.17-14.47-2.32-7.9-2.72-15.97-1.64-23.99.25-.14.22-.57.28-.87l1.59-7.64c.27-1.32.49-2.31.87-3.58l1.71-5.72,1.95-5.7,2.92-7.04,2.46-6.16,3.29-7.54,2.47-6.51,1.56-4.03c.7-1.81,1.28-3.45,1.47-5.28.25-.23.18-.58.23-.87,1.42-8.98-1.01-20.56-4.79-28.99-2.83-6.29-8.54-11.79-14.4-15.65l-4.81-3.17c-9.3-5.18-18.95-9.46-29.05-12.93l-7.76-2.28-15.74-3.3c-9.66-1.59-19.15-3.1-28.4-6.33l-5.38-2.36c-3.81-1.67-7.38-4.24-10.37-7.07-4.64-4.41-7.44-9.91-9.09-15.97-.71-2.61-1.32-5.05-1.3-7.58,0-.44.09-.96-.22-1.29-.5-2.81-.23-5.75-.15-8.84.32-11.49,2.14-22.43,5.49-33.44,1.69-5.55,3.84-10.67,4.82-16.38.85-4.9,1.38-9.75,1.15-14.67-.24-5.2-2.15-9.5-5.08-13.62-4.29-6.03-11.06-8.97-18.5-9.12-3.63-.07-7.15-.04-10.68,1.12l-15.78,5.19-10.11,3.19c-12.47,3.94-19.05-.64-29.83-2.77l-19.15-3.79-46.72-8.46c-10.48-1.9-21.47-2.81-31.84-1.22l-10.9,1.67c-.28.04-.74-.08-.88.27-8.22,1.17-15.87,4.01-23.92,6.79-9.36,3.88-18.45,7.42-28.03,10.67l-11.8,4.76c-5.7,2.3-10.66,5.51-15.89,8.64l-11.42,6.84c-11.34,6.79-21.31,14.91-29.85,24.93-1.57,1.84-2.88,3.29-3.9,5.5-.94,2.05-2.52,3.88-3.02,6.23-.81,3.85-.38,7.67.71,11.24.2.66.17,1.42.69,1.98l.19-.2v-1.83s.08-5.25.08-5.25c2.07-9.27,7.09-17.45,14.7-23.11,7.08-6.97,15.07-12.31,24.23-16.09l11.75-4.85c8.93-3.69,18.17-5.95,27.87-6.75,5.6-.46,10.69,1.36,14.78,5.01,3.97,2.51,6.4,6.5,8.19,10.78,1.39,3.34,2.86,6.51,3.46,10.12.92,5.61.51,11.14.31,16.82l-.25,6.85c-.17.28-.14.58-.17.88l-1.24,10.94-1.7,14.44-2.48,12.01c-1.79,8.66-4.31,17.4-8.99,24.8-1.03,1.62-1.82,3.1-3.24,4.49-1.23,1.2-2.04,2.78-3.62,3.52-3.13,1.48-6.02,1.9-9.47,1.53l-7.99-.86c-.15-.36-.59-.27-.87-.33l-5.22-1.07-7.57-2.32-7.55-2.98c-.87-.34-1.59-1.78-3.25-1.59.76,1.27,1.94,2.19,2.92,3.13,4.51,4.35,7.69,9.66,9.85,15.69,1.55,4.31,4.22,10.54,2.87,13.86-2.61,6.41-14.3,9.41-21.37,9.66l-1.34-.04h-.72s-2.48-.08-2.48-.08c-6.28-.19-19.04-6.1-27.04-5.4-1.16.21-2.62.07-3.89.65l-6.11,2.81c-3.32,2.23-5.74,5.14-8.71,7.84-8.8,8-19.04,13.95-31,15.62-5.76.8-11.28-.51-16.93-1.8-5.88-1.34-11.12-4.96-14.23-10.11-1.17-1.94-1.84-3.91-3.12-5.79-.39-.58-.4-1.81-.21-2.87,2.73,2,5.5,3.67,7.59,6.29,3,3.77,7.26,6.5,12.08,7.4,4.13.77,8.15,2.27,12.46,1.75,8.13-.98,16.01-3.97,22.89-8.49,4.86-3.19,8.16-8.02,12.87-11.34,10.78-7.59,20.35-6.79,22.37-6.73,7.93.21,14.72,4.66,21.09,5.26,6.71.63,13.41-1.16,19.13-4.42,1.38-.79,1.96-1.55,1.75-3.11-.42-3.1-1.81-5.85-2.76-8.76-1.79-5.49-4.53-10.13-8.61-14.24l-7.05-7.09-4.21-4.6c-2.55-2.78-4.68-5.72-7.23-8.52l-2.51-2.74-7.13-8.59-9.61-12.6-3.44-5.1c-1.87-2.77-3.95-5.78-5.25-8.9-1.99-4.78-2.63-9.89-2.54-14.85.08-4.49,1.58-8.05,4.11-11.54,1.03-1.43,1.64-3.09,3.62-3.68,7.65-9.34,16.15-17.89,26.51-24.19l13.53-8.24,4.73-2.91,9.73-5.71c7.45-3.88,15.3-6.45,23.2-9.45l16.06-6.1c12.83-4.87,21.74-8.3,35.89-10.53,18.8-2.97,28.38-2.2,46.89,1.17l40.53,7.38c7.81,1.42,15.28,2.59,22.91,4.59l11.82,3.11c3.5.92,6.55.74,9.96-.35l23.15-7.41,7.67-1.64ZM154.86,175.81c8.85,3.38,19.86,6.43,29.05,5.6,1.86-.17,2.45-1.27,3.42-2.35,4.62-5.18,7.21-11.06,9.2-17.59,3.17-10.39,5.08-20.51,6.23-31.36,1.14-10.77,2.53-21.07,2.56-31.91l-.62-8.06c-1.31-4.58-3.02-9.03-5.61-13.04-1.42-2.2-3.56-3.82-5.66-5.25-3.43-2.33-7.35-3.25-11.51-2.4l-12.81,2.64c-9.71,2.66-18.7,6.6-27.74,10.91-5.25,2.51-9.68,5.63-14.1,9.32-3.48,2.89-6.97,5.61-9.91,9.09l-4.19,6.7c-1.81,2.89-2.68,6.4-3.06,9.89-.77,7.08,7.08,21.45,11.59,28.35,1.85,2.83,3.36,5.62,5.76,8.01l9.1,9.06c3.66,3.65,13.83,10.68,18.3,12.39ZM105.11,122.44l-.19.2c-.09.35-.11.76.25,1.05.31-.6.08-.95-.07-1.25ZM146.26,176.89l-.2.2.2.2.2-.2-.2-.2ZM327.27,310.39c-1.08-.31-1.5,1.08-2,1.44-.99.72-1.22,1.53-1.87,2.41l-6.02,8.14-8.46,13.22-3.01,5.24c-2.45,4.26-4.42,9.22-4.6,14.29-.13,3.68,1.63,7.02,2.51,10.43.87,3.38,2.44,6.36,5.21,8.56l3.4,2.69c5.86,1.93,12.18,3.13,18.38,2.14l16.36-2.61c4.53-.72,8.63-2.65,12.72-4.57,2.58-1.21,4.56-3.3,6.22-5.52,6.54-8.77,8.3-19.68,6.3-30.41-.78-4.17-2.4-7.74-4.22-11.53l-2.87-5.97c-4.03-8.4-4.52-17.59-2.8-26.71,1.41-7.47,2.07-14.08-.71-21.08-.96-2.4-2.43-5.02-5.32-5.65-.91-.2-2.86-.74-3.79-.46-5.94,1.74-9.5,15.69-11.13,22.54-1.69,7.08-5.76,13-10.61,18.28l-3.11,3.39c-.42.45-.91,1.18-.58,1.74Z"/>
      <path class="st1" d="M309.74,335.81c4.54-8.39,10.29-15.74,16.26-23.24.61-.76,1.58-1.14,1.27-2.18.81.23,1.18-.16,1.73-.63,6.06-5.13,13.63-7.39,19.37-1.46,5.96,6.15,10.51,20.97,11,29.48l.37,6.48-.62,8.16c-.47,6.2-2.68,11.96-6.61,16.71-6.72,8.13-19.65,7.5-29.76,5.86-5.37-.87-9.53-3.11-13.04-7.27-7.93-9.41-5.62-21.48.03-31.91ZM339.19,370.7c12.74-1.77,15.11-15.66,15.12-27.22,0-5.99-.81-11.45-2.75-17.04l-3.23-9.31c-.93-2.69-2.48-5.19-5.04-6.73-6.8-4.11-15.74,8.25-20.42,14.69-7.4,10.19-17.79,25.58-10.73,36.95,1.97,3.18,4.35,6.29,7.94,7.09l7.93,1.78c3.79.85,7.28.34,11.17-.21Z"/>
      <path class="st1" d="M79.5,441.54c4.32-.02,8.38,1.22,12.51,2.22,2.21.53,3.82,1.89,4.56,4.12l1.27,3.82s4.7,13.97,10.31,18.03c2.56,1.85,5.39,5.43,10.81,6.96,7.82,2.2,15.92,2.46,23.91.69l13.84-3.07,15.99-3.82c8.88-2.12,29.99-10.09,30.69-10.47.41-.23,5.18-1.86,5.67-2.05l9.54-3.71,32.23-12.07c8.83-3.31,17.45-5.69,26.65-7.79,13.39-3.71,26.72-6.16,40.42-7.1.23-.33.57-.21.86-.24,8.01-.67,16-1.97,23.85-4.47l21.54-7.99,12.07-6.01,4.56-2.69,13.79-8.41c9.22-5.62,16.99-3.36,26.63-.03l12.51,4.32,4.52,1.82,11.99,4.42,2,1.04,8.07,2.82,7.33,2.73,9.85,3.48,3.9,1.22,15.33,4.21c10.92,3,22,3.96,33.29,4.75l18.11,1.26c6.95.48,13.5,1.39,20.35,2.97,12.08,2.78,23.91,4.33,36.32,4.79l24.03-.04,9.4-.4,19.76-2.35,24.63-2.73,15.29-1.94,14.8-2.21,12.27-3.11,13.05-2.31c10.89-1.93,20.68-6.6,30.28-11.92l15.9-8.82c8.01-5.27,14.68-11.75,20.54-19.34,3.09-4.01,6.01-7.81,8.03-12.45l.1-10.37-.77.07c-.07,2.25-1.29,4.19-2.5,6.11l-1.55,2.46-3.03,5.13c-1.9,3.22-3.99,6.02-6.57,8.73l-5.93,6.25c-4.55,4.79-9.74,8.37-15.52,11.55l-6.78,3.74-3.69,1.95c-11.61,6.14-24.18,11.72-37.09,12.88-.14.39-.61.23-.87.28l-8.83,1.8-3.79,1.01c-5.6,1.49-10.99,2.38-16.75,3.08l-13.38,1.61c-.25.12-.55.17-.84.21l-9.22,1.33-16.91,1.7c-.26.09-.62.2-.9.23l-17.38,1.97-33.79.8-8.9-.46-11.64-1.13c-.32-.03-.64-.05-.9-.23l-14.5-2.59c-9.43-1.68-18.62-3.04-28.22-3.76l-15.24-1.15-11.74-1.21c-.31-.03-.64.02-.93-.18-7.85-1.04-15.74-2.58-23.71-4.65l-29.39-9.97-7.74-2.84-19.34-7.28-17.69-6.06-5.68-1.21c-.45.01-.9-.02-1.29-.21-4.79-.7-9.66.24-14.38,2.05-5.31,2.04-9.71,5.38-14.56,8.28l-5.81,3.48-8.55,4.5-11.42,5.08c-7.55,2.84-14.93,5.59-22.87,7.31l-18.54,2.51-17.19,2.33c-.27.06-.57.11-.86.17l-11,2.29-12.97,3.19c-12.69,3.12-24.72,7.6-36.96,12.17l-20.95,7.83-24.29,9.17c-9.05,3.42-17.89,6.08-27.34,8.16l-18.88,4.15-6.88,1.17c-.28.16-.59.26-.88.24l-10.33-.42c-5.36-.76-10.44-2.9-13.84-7.23-2.75-3.51-4.29-7.61-6.19-11.55l-3.03-6.26c-.81-1.67-.95-3.62-2.21-5.08-.56-.65-1.47-1.19-1.51-2.04l-.93-.23c-2.86-1.6-5.91-2.63-9.33-3.27-5.82-1.08-9.62-1.9-15.6.95-16.21,7.73-22.12,18.17-31.86,23.74l-9.77,3.68c-1.57.59-2.77,1.78-3.9,2.82l.05.77c5.57,2.18,15.38-1.23,19.94-5.35l3.01-2.23,5.64-5.26c4.86-4.54,9.78-8.59,15.71-11.69,2.54-1.33,5.08-3.12,8.09-3.13Z"/>
      <path class="st1" d="M75.64,463.08c2.72-.66,5.77.3,8.38,1.35,4.06,1.65,7.18,5.08,9.25,8.85l4.59,8.37,6.91,11.64c6.22,7.93,15.97,11.49,25.97,10.62,9.49-.82,18.51-4.65,26.92-8.89,7.88-3.97,14.78-8.9,22.03-13.85l11.02-7.53c6.76-4.62,14.03-7.46,21.82-10.17,12.77-3.69,25.69-5.6,38.95-6.99l12.39-2.55c5.71-1.18,10.93-2.89,16.32-4.96,7.08-2.71,25.39-1.86,33.63.64,9.72,2.95,20.52,4.42,29.86.25,3.53-1.58,5.94-4.47,8.86-6.83l8.51-6.89c5.32-4.31,11.29-7.65,17.48-10.71,7.9-3.91,16.08-6.28,24.9-6.51,11.37-.3,22.35.87,32.8,5.04l10.06,4.02,13.21,6.18,10.21,4.37,5.02,2.1,12.2,4.3,14.71,5.22c12.48,4.43,24.51,9.23,37.38,12.59,7.81,2.04,15.35,2.3,23.39,2.26l10.51-.04,39.49-.2,34.72-2.99c12.02-1.04,23.24-3.67,34.69-7.33l20.62-5.25c13.62-3.47,26.85-7.19,39.57-13.25l16.91-6.97,30.26-11.95,22.27-8.86c.76-.3,1.36-.29,1.35-1.37v-4.03c-.01-.29,0-.53-.18-.57-.11-.03-.47,0-.64.06l-5.23,2.08-15.4,6.06-18.66,7.51-21.56,8.35-19.95,8.64-9.8,3.59-12.78,3.68-10.01,2.47-15.55,3.88-23.59,6.17-16.39,2.19-19.36,2.01-18.97.8-23.39-.04-23.39.13c-5.1.03-9.85.02-14.75-1.42l-22.09-6.48-11.11-3.97-14.29-5.48-28.13-10.19-12.67-5.91c-14.53-6.77-27.22-11.68-43.37-12.29-.3-.01-.59-.02-.88-.13h-9c-12.88.02-29.24,7.46-39.88,15.1l-14.02,11.28c-4.18,3.37-7.84,6.32-13.55,6.78-4.66.37-9.57.3-14.32-1.1-7.96-2.35-15.77-3.81-24.18-3.63l-7.62.16c-.54.31-1.12.19-1.68.2-4.4.04-8.66,1.44-12.8,3.34-2.45,1.13-5.02,1.54-7.64,2.1l-14.29,3.03-12.65,1.55-19.44,3.59-10.56,2.89c-.16.04-4.75,1.77-5.21,1.97l-4.35,1.87-9.57,4.96-8.44,5.37-8.65,6.18-6.15,4.34-4.59,2.75c-9.95,5.97-24.65,12.74-36.05,12.4-6.81-.21-12.75-3.49-17.13-8.64-1.66-1.95-3.62-3.92-4.49-6.35l-1.6-4.5-4.45-8.03c-4.19-7.56-8.85-11.53-17.12-13.58-3.83-.95-6.86-.11-10.41,1.07-5.03,1.67-8.65,4.59-10.66,9.69-7.01,17.8,8.15,26.09,22.86,32.71l5.52,1.82c3.26,1.07,6.81,2.13,8.97,5.01,5.43,7.26,18.87,11.69,27.79,11.69,5.79,0,11.78-.69,16.89-3.34l12.76-6.61,4.23-1.84c10.53-5.43,20.34-11.77,30.02-18.65l11.95-9.15c3.71-2.84,8.73-4.52,13.51-5.22l6.91-.37c11.68-.12,23.09-1.13,34.42-4.06,11.73-3.03,20.1-10.24,28.88-12.7l5.15-.89c1.04-.18,1.59-.18,2.54,0,1.92.37,3.64,1.16,5.49,2.18l4.16,2.31,6.06,4.15,3.6,2.86c2.45,1.94,4.69,4.2,6.66,6.6,2.88,3.51,6.26,6.11,10.11,8.47,2.14,1.31,4.14,2.88,6.73,3.26,8.04,1.19,11.99-7.1,15.47-13.33l7.94-14.22,6.04-7.7,8.78-9.78c4.41-3.72,9.91-6.06,15.31-7.99l12.11-2.84,3.62-.04.85.02,5.66.08c6.95.09,14.03.88,20.58,3.19l3.07.43c6.34,2.16,11.97,5.63,16.31,10.73l3.05,2.64c5.52,5.63,9.93,12.07,13.89,18.91l3.04,5.25c3.64,6.28,3.16,13.29.73,19.98-1.79,4.92-3.79,9.63-7.5,13.34l-4.23,4.23c-5.35,4.53-11.38,8.22-18.24,10l-10.1,1.71c-.32.14-.62.13-.93.15-4.27.28-8.54.48-12.81.05-.29-.03-.73.05-.89-.34-2.27-.12-4.66-1.32-7.06-1.76l-6.15-1.14c-.3-.06-.61-.03-.92-.21l-7.57-.04c-.56.35-1.14.22-1.71.23l-3.14.07-1.68-.24-8.52-1.2c-9.65-1.36-18.62-4.79-26.88-9.93-4.46-2.52-9.25-3.66-14.24-2.42-6.04,3.96-12.1,7.43-18.82,10.18l-15.19,6.21-15.26,6.94c-5.65,2.57-10.52,6.09-15.14,10.3l-10.94,9.99-5.94,5.02-4.46,3.41.02.8,7.82-.44c3.19-1.35,5.45-4.31,7.92-6.55l4.29-3.89,10.93-9.19c6.37-4.17,12.96-7.4,19.97-10.31l8.85-3.67c5.61-2.33,11.29-4.09,16.56-7.23,4.08-1.9,7.82-4.08,11.43-6.76,3.98-.68,7.4.74,10.79,2.62,3.45,1.9,6.7,3.85,10.44,5.23l6.67,2.47c8.6,2.38,17.28,3.91,26.16,3.65,3.45-.1,6.53-.47,9.87.38l8.27,2.11c5.55,1.41,11.3,1.69,16.98.93l10.41-1.39c5.78-.77,10.84-3.62,15.88-6.66,11.51-6.95,19.55-18.83,21.69-32.18.75-4.68.45-8.96-1.33-13.29-2.82-6.88-7.24-12.71-11.22-19.33-.05.04-.1.06-.15.04-.67-.24-.83-.99-1.02-1.3l.34-.58.79.58c.3.22.31.77.18,1.08,2.73.04,3.85,2.15,5.74,3.08,5.96,3.55,11.08,7.96,16.66,11.98l3.59,2.59,5.72,4.41c4.9,4.98,9.93,9.62,15.78,13.56,5.78,3.89,13.62,5.64,20.65,6.84,7.06,1.2,13.98,2.24,20.96,1.47.14-.28.58-.19.86-.25l14.03-2.58,14.96-3.55c.1-.43.63-.25.86-.27l22.05-3.88c8.65-1.59,16.96-2.48,25.69-2.9,4.42-.21,8.78.07,13.14-1.14l15.98-4.46,14.35-4.64,11.3-2.01c18.47-3.28,36.4-8.01,53.71-15.15l13.84-5.27c10.5-4,20.9-7.07,32-9.08,3.27-.59,6.6-.86,9.69-.79,0-.2.12-.32.23-.37.3-.14.61.07.61.31l14.22-.65.1-3.75-11.15-.81c-13.07.02-25.65,2.65-37.98,6.81l-27.64,10.31-11.91,4.2-12.4,3.76-22.56,4.93c-.15.25-.61.18-.9.23l-2.85.43c-5.96.9-11.55,2.21-17.33,4.04l-21.14,6.7-16.86,1.29c-9.96.76-19.52,2.3-29.37,3.94l-6.3,1.05-12.19,2.42-25.42,5.58-8.81.77c-.29.03-.61-.06-.9-.08-7.84-1.11-15.94-1.75-23.69-4.38-7.87-2.67-13.85-8.11-19.57-13.79-3.34-3.32-6.89-5.75-10.54-8.53l-11.68-8.89-15.82-10.8c-7.13-6.23-14.83-10.63-23.52-14.43l-10.09-4.41c-2.39-1.04-5.06-1.65-7.64-1.59-.29,0-.64-.07-.88-.24l-3.99-.54-7.69-.7c-1.1-.1-2.28.07-3.19.13l-2.09.13-11.9,1.85c-8.07,1.97-15.66,4.61-22.49,9.3-2.18,1.5-3.76,3.13-5.46,5.07l-3.96,4.51-5.29,6.43c-7.16,8.71-10.5,19.44-15.92,26.43-1.08,1.39-3.54,3.62-5.37,3.1-6.43-1.84-10.97-6.52-15.33-11.32-6.6-7.26-14.65-12.9-23.43-17.15-6.83-3.31-16.82-.05-23.63,3.61l-7.36,3.94c-5.31,2.84-10.73,4.78-16.71,5.94-9.61,1.88-19.04,2.94-28.84,2.92-4.06,0-7.82.02-11.68,1.25-4.21,1.34-7.84,3.02-11.77,5.33-8.44,6.82-17.02,13.38-26.47,18.93l-11.32,6.12-14.74,7.37-4.96,3.13c-2.08,1.32-4.65,1.61-7.12,2.2-6.14,1.46-12.52.79-18.49-1.11-12.47-3.95-13.4-10.28-16.35-11.47l-9.56-3.85c-8.68-2.87-24.76-10.35-24.99-19.34-.11-4.19,1.35-9,4.43-11.85,2.03-1.87,5.1-2.55,7.72-3.19ZM464.64,451.89l-.16.59c-.45-.14-.27-.69.16-.59Z"/>
      <path class="st1" d="M26.24,289.9l-.11-1.82,1.26-2.38c.82.83,2.16.66,2.76,1.37l6.11,7.22c.82.97,1.38,1.35,3.02,1.23-.35.27-1.18,1.14-.92,1.49l2.77,3.76c4.74,5.04,8.67,10.35,12.42,16.19,6.72,10.44,14.32,21.33,25.02,27.77,2.66,1.6,5.36,2.62,8.29,3.51,3.14.96,6.93-.97,9.07-3.29,4.62-4.99,9.74-9,15.38-12.86,4.39-3.01,13.24-5.5,18.39-7.65-3.53-1.17-10.62.89-13.9.74l-6.91-.32c-8.87-.41-17.84-1-25.88-4.78-9.6-4.51-20.13-11.7-24.5-21.42-2.14-4.76-1.9-10.08-2.09-15.27-.38-10.46,3.4-19.8,9.65-28.05,3.24-4.27,7.52-7.42,11.65-10.84,5.56-4.6,11.78-7.35,18.77-9.11,5.6-1.42,11.21-2.58,16.84-1.86.26.12.59.14.9.17l11.71,1.13c12.5,0,17.33,3.84,34.27-1.75,3.5-1.15,6.06-3.14,8.55-5.63,1.45-1.45,3.68-2.48,4.7-4.05.34-.03.83-.17.85-.48,2.15-1.02,3.79-3.13,5.66-4.85l4.33-3.97,5.74-3.63,6.22-3.1c4.63-2.31,10.49-5.99,15.48-6.71l8.85-1.29c.27-.04.74.13.9-.21,5.11-.48,10.12.01,15.33,1.16l13.57,3.37c17.22,4.27,29.48,12.99,42.38,24.49,7.1,6.33,10.92,14.58,12.01,23.99.83,7.11.68,14.04-1.62,21.07-5.78,17.74-15.75,33.89-28.78,47.19-4.34,4.43-8.73,7.94-13.99,11.16-8.02,4.91-24.68,12.81-33.06,12.42-4.24-.2-8.16-.9-12.08-2.41l-14.33-5.5c-6.65-2.55-12.86-5.71-19.78-7.56-8.68-2.33-20.88-4.6-29.11-2.9l-14.76,3.04c-8.92,1.84-23.11,7.69-29.99,13.94-4.69,8.88-10.16,11.99-20.17,11-3.55-.35-7.13-1.04-9.96-3.04-5.48-3.87-10.62-7.99-15.12-13.11l-10.78-14.19c-2.73-3.59-4.71-7.46-7.6-10.99l-10.89-13.3c-1.21-1.48-1.9-3.26-3.3-4.76-1.25-1.34-2.55-2.84-3.25-4.35ZM121.87,319.6l21.36-2.57c7.22-.87,24.31,1,31.36,4.86,5.81.91,11.22,2.47,16.65,4.72l15.96,6.62c5.49,2.28,10.83,4.34,16.66,5.54,2.58.53,4.98.38,7.55-.32,14.24-3.9,31.15-12.16,40.76-23.38l5.6-6.54c2.88-3.36,5.57-6.62,7.72-10.45l5.81-10.37,2.03-4.02c6.3-12.46,8.8-20.54,5.9-34.35-1.3-6.2-3.77-11.53-8.35-16.05-5.68-5.61-11.89-10.38-18.65-14.78-4.65-3.03-9.53-5.46-14.77-7.4-6.81-2.52-27.38-7.84-32.73-7.03l-10.95,1.66c-7.76,1.18-12.98,5.73-19.46,8.42-3.25,1.35-5.99,3.29-8.56,5.59l-6.6,5.91c-3.39,3.03-7,5.46-10.25,8.72-3.92,3.93-16.94,6.74-23.8,7.05l-18.38-1.24c-4-.27-7.8-.57-11.72-1.25-5.95-1.03-11.6.26-17.3,1.55-6.04,1.37-11.02,3.48-15.86,7.28-5.13,4.03-10.19,8.04-13.85,13.56l-3.54,7c-2.25,4.46-3.1,9.16-2.86,14.22.18,3.73-.26,7.5.73,11.14,1.8,6.57,7.96,12.93,13.89,16.04,4.03,2.11,7.6,4.89,11.93,6.53,5.29,2,10.83,3.17,16.47,3.21l17.27.11Z"/>
      <path class="st1" d="M457.83,22.05c3.82,4.32,6.97,9.12,9.3,14.5,6.13,14.13,5.78,27.24,4.51,42.3l-.88,10.52c-1.03,12.22.05,23.41,3.58,35.13,2.73,9.04,6.86,11.84,16.34,14.4l29.18,7.87c7.22,1.95,13.18,5.33,18.5,10.59,6.14,6.06,16.71,10.78,25.07,14.02l12.52,4.86c4.25,1.65,8.17,3.55,11.94,6.27,17.67,12.72,26.72,36.04,25.12,57.62-.4,5.4-2.33,10.13-4.13,15.14-2.68,7.41-6.58,14.13-11.74,20.08-4.31,4.98-9.4,8.65-14.88,12.13l-6.37,4.94-9.41,9.58c-1.7,1.73-2.96,4.62-2.29,6.83.86,2.81,2.49,4.85,3.78,7.24l5.67,10.49c3.18,5.88,6.47,11.58,10.57,16.79l5.21,5.34,8.73,7.04c9.18,7.41,28.46,13.98,40.89,12.73,4.6-.46,8.9-1.51,13.34-2.69,9.13-2.44,17.21-6.66,24.33-12.82,5.05-4.37,10.57-7.44,16.24-10.81l12.13-7.23,4.49-2.38,8.11-3.97,19.6-9.71c6.39-3.17,12.99-5.17,19.89-6.85,7.5-1.83,14.85-2.54,22.46-1.87,9.78.85,18.11,6.15,24.78,13.16l8.28,8.7.19,9.8-.81-.5c-1.11-2.12-2.15-4.85-3.96-6.76l-5.7-6.01-3.52-3.35c-3.6-3.43-10.01-8.09-14.2-9.15-4.52-1.15-9.28-1.46-13.96-.98-9.63.99-18.75,3.47-27.82,6.9l-11.6,5.77-7.51,3.78-18.31,9.09-10,6.12c-6.28,3.84-12.37,7.46-17.98,12.26-3.41,2.92-6.96,5.18-11.02,7.15l-11.22,4.37c-4.89,1.91-10.14,2.58-15.44,3.09-8.75.83-17.21-.52-25.33-3.81l-9.15-3.71c-8.42-4.3-15.96-10.02-22.45-16.88-2.19-2.32-4.28-4.7-5.91-7.34l-7.06-11.43-9.26-16.93c-1.99-3.64-1.25-8.16.34-11.75l4.96-7.05c.96-1.36,2.13-2.14,3.26-3.23,4.07-3.94,8.36-7.21,13.09-10.31l10.57-8.05c.55-.42,1.39-1.58,1.78-2.11l2.4-3.29,4.56-8.44,2.54-5.88,3.01-9.14c1.35-4.11,1.38-8.18.91-12.5-.72-6.47-1.29-12.97-3.77-18.91-2.77-6.62-5.63-13.01-10.43-18.23-2.72-2.95-5.35-5.72-8.63-7.9-5.39-3.59-11.2-5.68-17.1-7.96l-6.79-2.62-9-3.79c-6.78-3.39-13.02-7.3-18.7-12.42-3.67-3.31-7.19-5.93-12.13-7.26l-30.72-8.28c-4.85-1.31-9.45-2.97-13.39-5.98-8.04-6.15-10.82-22.38-11.63-32.44-.02-.24.22-.72-.18-.91l.05-15.64c.16-.29.2-.62.22-.91l.34-5.71,1.28-18.31c-.46-6.91-.72-13.4-2.65-20.05-2.5-8.6-7.33-16.16-13.35-22.45,1.72-.71,5.78-.56,6.32.06Z"/>
      <path class="st1" d="M536.14,22.01c-7.53,5.48-14.55,11.54-21,18.46l-5.26,8.48c-1.76,2.83-2.8,5.87-3.91,9.02-3.31,9.37-1.09,19.7,8.31,23.5l9.46,3.83c4.69,1.9,9.2,4.2,13.04,7.48,7.73,6.61,16.83,26.99,26.85,39.65l6.79,8.58c1.4,1.76,2.64,3.45,4.44,4.87l6.09,4.81,7.04,5.84,5.03,3.87,25.34,16.95,8.91,6.03,7.99,4.96c3.18,1.97,6.65,3.54,10.31,4.51l8.61,2.29c12.12,2.77,22.55,8.85,30.65,18.24l12.44,12.52c4.21,4.23,8.96,7.31,14.22,10.05l7.98,4.15c3.91,2.03,7.96,3.52,12.33,4.56l15.7,3.73c5.44,1.67,10.77,3.49,15.79,6.45,11.63,6.86,22.17,15.08,32.36,23.89l6.75,6.62,3.16,3.3,7.12,8.58.12,7.02h-.81c-.19-1.25-1.51-1.79-2.13-2.78-2.87-4.61-6.65-8.17-10.36-11.98l-4.18-4.29-3.96-3.72-10.04-8.13c-5.87-4.76-11.88-8.81-18.25-12.92-6.02-3.88-11.97-6.54-19.06-7.96-7.15-1.42-14.2-2.94-20.97-5.55l-5.01-1.93-5.81-2.93c-4.88-2.47-9.49-5.02-13.66-8.63l-7.5-6.51-9.5-9.87c-10.6-11.01-14.49-12.83-29.15-17.21l-9.4-2.8-8.09-3.53-6.32-3.35-.91-.46-8.44-5.67-8.23-5.4-1.81-1.36-.82-.45-5.99-4.11c-8.63-5.92-17.04-11.67-25.05-18.42l-8-7.41-2.8-2.83-8.73-11.03-7.73-11.23-2.77-4.86-5.82-9.48-3.99-6.96c-1.15-2.01-3.04-3.83-5.02-4.99l-4.86-2.85c-2.94-1.72-6.23-2.7-9.33-4.06l-5.34-2.34c-5.54-2.43-11.33-9.01-12.68-15.43-2.71-12.88,4.98-26.33,13.45-36.1,4.28-4.93,9.15-8.87,14.03-12.99l7.6-.11c.43,0,.71.17.76.43Z"/>
      <path class="st1" d="M214.6,479.75h1.27c5.94,0,8.99,2.27,14.86,2.2.22,0,.58.36.83,0,4.15.45,8.19-.69,12.37-1.36,5.34-.86,9.62-3.03,14.26-5.64l14.96-8.44c2.72-1.54,5.29-3.31,8.34-4.08,3.73-.94,7.65-.59,11.39.56,5.69,1.76,10.31,5.42,14.48,9.59,3.55,3.55,6.26,7.86,6.69,12.96.89,10.43-8.13,20.35-17.6,24.45l-22.76,9.86c-4.44,2.45-8.71,5.13-11.8,9.18-5.2,6.81-10.8,12.68-17.48,18.02l-9.87,7.89-5.44,3.05c-4.83,2.71-9.74,4.61-15.28,5.31l-8.48,1.08c-11.51,1.46-28.33,2.38-38.99-.52l-3.54-1.49c-3.04-1.28-5.6-2.96-7.09-5.96l-2.03-4.08c-1.28-2.58-2.56-5.33-2.46-8.44l-.46-3.05.88-3.61,3.66-9.1,4.17-5.84,4.12-4.42,6.17-7.11c4.24-5.9,9.16-10.54,14.83-15.05,7.1-5.65,14.23-10.88,22.65-14.36,2.46-1.02,4.91-1.46,7.34-1.6ZM196.34,559.33l13.92-1.61c3.43-.4,6.91-.54,10-2.08l8.34-4.18c2.7-1.35,5.32-2.46,7.66-4.49l9.49-8.24c4.25-3.69,7.68-7.83,11.22-12.15,4.35-5.31,9.63-9.04,15.63-12.25l15.5-6.66c7.66-3.29,15.14-6.06,19.24-14.31,1.35-2.71,2.41-5.54,1.65-8.59-.77-3.09-2.27-5.54-4.42-7.77-3.26-3.39-6.62-6.61-11.06-8.35-3.71-1.45-8.09-2.72-11.64-.73l-12.91,7.23-10.45,5.72c-5.19,2.84-10.51,4.5-16.41,5.44-6.38,1.03-12.98,1.71-19.25-.32-3.88-1.26-7.57-2-11.7-.35-4.52,1.81-9.38,3.71-13.33,6.77l-14.09,10.92-4.89,4.8c-5.05,6.61-10.49,12.43-16.03,18.66-3.15,3.54-5,8.24-6.15,12.7-.98,3.82-.02,7.59,2.25,10.48,1.46,3.81,4.38,6.41,8.26,7.59,1.83.56,3.59,1.49,5.6,1.63,7.81.54,15.56,1.06,23.56.13Z"/>
      <path class="st1" d="M627.34,21.59c-.51,1.74-7.29,6.16-11.02,7.56l-12.01,4.5c-5.79,2.17-11.07,4.73-15.83,8.87-5.18,6.01-8.18,13.6-8.86,21.34-.27.24-.26.58-.25.94l.06,6.62c.81,7.07,1.87,14,4.41,20.65,2.2,5.76,4.17,11.26,7.3,16.58,2.46,4.17,4.93,8.35,8.31,11.8l11.57,11.83c7.97,8.14,20.32,10.54,30.97,14.26l12.28,4.28,21.33,8.5c12.55,5.62,23.05,13.7,33.01,22.96,5.67,5.28,12.05,9.17,19.24,11.85l14.73,4.24,12.66,3.09c8.73,2.13,17.17,4.38,25.37,8.14,8.01,3.68,15.37,8.1,21.68,14.17l10.47,10.07-.13,7-7.23-7.29-3.39-3.41c-9.54-9.6-19.87-15.89-32.88-19.61l-12.27-3.51-12.54-3.1-6.47-1.66c-6.37-1.56-12.43-3.51-18.09-6.55-.06-.24-.55-.32-.81-.35-3.66-1.73-7.08-3.92-10.28-6.65l-6.33-5.38c-4.6-4.47-9.48-8.23-14.93-11.66l-5.72-3.6c-5.92-3.73-12.45-6.07-19.04-8.55l-4.55-1.71-12.88-4.89-9.87-3.18-7.82-2.66-5.77-2.06c-.23-.28-.53-.44-.86-.53-5.28-2.81-10.39-5.8-14.86-10.05-7.17-6.82-13.51-13.95-18.67-22.43l-1.96-3.68-3.35-7.2c-4.02-8.64-7.11-20.43-7.47-29.92-.3-7.92,1.11-15.77,4.45-22.89,3.98-8.49,12.64-15.47,21.27-18.66l15.92-5.88,3-1.76,2.04-.42h6.08Z"/>
      <path class="st1" d="M656.77,382.26c.39-.02.66-.21.88-.56,3.54-4.86,16.34-12.37,22.8-16.14l8.99-5.24c9.83-5.15,20.19-9.12,31.07-11.83,11.48-2.86,25.68-5.39,37.19-3.83,8.34,1.12,18.21,7.37,20.83,14.95.99,2.87.72,6.53-.96,9.12l-11.75,18.05c-3.06,4.7-6.81,8.61-10.85,12.56-5.23,5.12-11.12,9.39-17.48,13.06-5.18,3-10.87,4.32-16.43,6.2l-2.14.37c-11.38,1.94-22.57,1.94-33.83-.56l-12.1-2.02-5.1-1.66-4.82-2.06-5.47-3.07c-2.52-1.93-5.72-3.33-7.47-6.15-2.54-4.09-.63-11.1,1.85-14.53l4.8-6.64ZM681.74,412.67l10.32,1.71c12.98,2.15,26.14.39,38.27-4.56,9.33-3.81,23.07-14.71,28.65-22.65l7.52-10.68,7.24-11.75c2.77-4.5-6.49-12.26-13.01-14.3-5.25-1.64-10.66-1.62-15.98-.79l-18.24,2.85c-5.53.86-10.65,2.41-15.85,4.43l-11.37,4.42-15.1,8.25-13.04,7.98-6.77,4.96c-4.03,2.95-10.83,11.87-10.42,15.77.17,1.63,1.51,3.47,2.79,4.46,7.29,5.62,15.68,8.89,24.99,9.9Z"/>
      <path class="st1" d="M679.47,21.79l-7.32,5.07c-4.03,2.79-7.55,5.89-10.14,10.08-1.93,3.13-4.04,6.07-4.81,9.76l-2.85,13.63-2.24,12.9c-.4,5.39,2.51,10.01,5.32,14.2,2.84,4.24,5.65,7.87,9.74,10.93l11.02,8.25,7.3,4.83,5.79,4.31,4.81,3.64,6.1,4.82c8.79,7.69,17.97,14.33,27.97,20.42,7.8,4.75,14.86,10.11,23.28,13.82,12.7,5.6,26.01,9.11,39.67,11.54,6.79,1.21,13.14,2.06,19.59,4.11l-.09,4.85-20.68-4.12c-.12-.46-.64-.24-.89-.29l-11.52-2.3c-11.37-2.72-22.32-6.21-32.8-11.71l-20.64-12.61-18.34-12.69-11.8-9.64-12.39-9.43c-6.69-4.63-13.5-8.69-19.61-14.3-5.01-4.61-9.26-9.78-12.85-15.59-2.3-3.71-3.28-8.13-3.65-12.15l.02-1.31c-.37-4,.49-7.9,1.38-11.95l2.69-12.35,2.96-8.3c.8-2.25,2.11-4.19,3.47-6.23,3.25-4.86,7.71-8.66,12.16-12.3l9.32.1Z"/>
      <path class="st1" d="M256.13,178.25l-6.43-6.08-6.86-7.75c-3.56-4.02-6.18-8.66-8.7-13.41-2.9-5.46-4.94-12.58-3.05-18.3,1.51-4.57,4.36-8.54,7.84-11.76,8.97-1.91,21.66-.8,29.49,3.89l14.06,8.42,9.4,6.36c10.27,6.95,23.66,17.22,28.35,28.46,3.47,8.32,4.15,17.84-3.66,22.8-10.63,6.75-23.09,3.9-34.46.04-5.78-1.96-11.64-2.95-16.88-6.16-3.22-1.97-6.36-3.92-9.09-6.5ZM309.92,161.88c-4.2-4.48-8.33-8.91-13.35-12.45l-11.15-7.85c-7.34-5.17-14.97-9.55-22.85-13.85-4.09-2.23-16.92-3.24-19.16-2.32-7.61,3.12-9.86,11.92-6.52,19.11,3.34,7.19,7.52,13.57,12.66,19.67l9.46,9.48c4.42,4.43,9.73,7.78,15.74,9.63l15.2,4.68c8.39,2.58,18.17,3.13,25.08-2.26,6.04-4.72.39-17.96-5.11-23.83Z"/>
      <path class="st1" d="M431.56,435.22c12.17,4.89,22.81,15.24,23.86,28.81,1.13,14.59-6.82,25.89-19.19,32.83-6.83,3.83-14.12,5.41-21.98,5.77l-7.53-.31c-.18-.44-.68-.22-.94-.25-12.65-1.9-24.72-8.51-31.16-20-5.35-9.56-5.2-21.11.6-30.51,6.4-10.39,17.63-17.12,29.37-19l.87-.26,5.6-.08,2.08-.38c6.39.1,12.63,1.07,18.41,3.4ZM449.12,474.58c3.14-8.97.62-18.8-5.9-25.68-7.99-8.44-18.23-11.4-29.68-12.06l-4.68.37c-8.39,1.19-16.27,3.97-22.72,9.58-12.21,10.61-14.02,26.67-2.87,38.69,6.73,7.26,16.11,11.14,26.03,11.91,16.4,1.28,34.19-6.74,39.81-22.79Z"/>
      <path class="st1" d="M818.95,547.09l-.13,6c-6.22,3.33-12.71,5.67-19.98,6.63-9.65,1.28-19.34,1.36-28.92-.45l-13.13-3.25c-1-.25-1.49-1.15-2.12-1.52-7.9-3.38-14.88-8.03-21.51-13.58l-4.02-4.02c-6.98-6.99-4.31-21.09,4.78-28.36,3.82-3.05,8.09-4.91,12.64-6.76l13.71-5.58,6.44-3.58,9.02-6.44c7.3-5.86,18.91-15.09,27.41-16.09l1.31-.15c2.71-.32,5.4-.77,8.27-.44l-.06,4.94c-4.97-.23-9.88-.39-13.94,2.16l-9.13,5.72-5.7,4.04c-8.69,7.73-18.27,13.55-29.09,18.04l-15.11,6.26c-3.19,1.76-5.97,4.15-7.47,7.47-1.61,3.56-2.47,7.66-1.83,11.56.33,2,2.1,3.65,3.47,4.98,6.05,5.9,12.87,10.54,20.54,14.1l6.52,2.03c5.66,1.76,11.27,3.29,17.27,3.63,8.55.48,16.82.33,25.12-1.53,7.09-1.59,13.4-5.65,15.64-5.79Z"/>
      <path class="st1" d="M488.09,533.47c.45.6,1.21.27,1.74.33,11.81,1.4,20.45,13,26.37,23.52l-5.57.07c-.96-1-1.28-2.45-2.6-3.22-4.27-7.98-11.16-14.51-20.42-15.64-3.19-.39-6.35,0-9.52.62l-18.14,3.59c-.29.06-.73-.03-.89.29l-4.35.57c-9.63,1.27-17.96.99-27.46-1.42-5.51-1.94-11.08-2.58-16.96-2.4l-12.62,1.53c-5.62.68-10.63,2.81-15.74,5.21-6.91,3.25-10.61,6.72-16.48,10.69l-7.4.21c1.16-1.48,2.14-2.52,3.37-3.45l8.53-6.48c10.62-8.06,24.22-11.58,37.56-12.7,6.64-.56,13.22.13,19.6,1.98,7.36,2.13,14.81,2.62,22.26,2.27.31-.01.69.06.87-.3.52.07,1.27.19,2.02.05l22.01-4.21c3.11-.59,6.05-1.22,9-1.2.31,0,.59-.02.87-.15,1.2-.25,2.82.21,3.94.25Z"/>
      <path class="st1" d="M713.24,21.64c-.02,1,.38,1.75,1.32,2.33,3.36,2.06,6.5,4.51,10.29,5.77l15.44,5.16,3.79,1.03c15.05,4.1,28.15,10.48,36.64,23.87l3.61,5.69,4.36,7.32c.16.26.57.43.75.4.02.51.33,1.15.82,1.34,1.08.41,1.7,1.38,2.65,2.06l6.65,4.76c3.95,2.82,8.64,4.22,13.14,6.02l-.07,4.98c-4.86-1.46-8.82-3.63-13.16-5.86-9.2-4.73-16.09-12.46-21.21-21.41-2.45-4.28-5.08-8.19-8.7-11.44-3.09-2.77-6.12-5.26-9.89-6.82l-4.58-1.9-3.93-1.34-11.62-3.64-12.31-4.12c-6.01-2.01-19.3-8.75-18.39-14.19h4.4Z"/>
      <path class="st1" d="M146.17,158.01l-10.99-11c-5.24-5.24-10.08-10.59-14.28-16.7-2.5-3.63-4.12-7.72-3.12-11.99,3.1-13.25,11.67-18.74,22.44-25.51,5.87-3.69,12.07-6.43,18.24-9.58,2.04-1.04,3.89-1.82,6.18-2.32,3.21-.71,6.25-2.22,9.7-2.28,7.86-.13,15.06,4.23,18.87,11.13,3.07,5.55,4.19,11.68,4.67,17.94l-2.09,25.43c-.61,7.44-2.56,14.26-4.82,21.32-1.15,3.61-2.19,7.3-4.95,9.93-3.64,3.48-8.41,4.75-13.38,4.35-7.35-.59-14.59-2.07-20.54-6.39l-5.96-4.33ZM154.47,157.82c2.19,1.19,3.96,2.58,6.17,3.31,7.48,2.48,18.12,5.18,22.54-1.57,1.97-3.01,2.85-6.6,3.71-10.07l2.65-10.66c1.07-6.61,1.51-13.04,2.05-19.69l.8-9.73c.94-11.5-5.3-26.19-17.51-25.58l-6.53,1.88c-3.36.42-6.14,1.61-9.17,2.99-7.92,3.6-15.28,7.68-22.41,12.69-2.35,1.65-4.69,2.96-6.67,5.11-3.52,3.82-6.01,8.52-7.33,13.63-1.12,4.37,7.34,14.11,11.37,18.24l12.55,12.87c2.39,2.45,4.63,4.84,7.79,6.56Z"/>
      <path class="st1" d="M82.78,310.19c-9.03-8.2-9.56-10.78-13.73-21.59-1.04-2.69-1.13-5.47-.99-8.3l.1-2.05c.12-2.33.95-4.57,2.38-6.42l9.79-12.61c2.56-3.3,5.64-6.19,9.22-8.34,6.61-3.97,13.74-7.05,21.45-7.97,5.52-.66,10.91.32,16.3,1.26,4,.7,7.74,1.32,11.72,2.03l6.85,1.22c11.38,2.03,20.42,4.59,31.39-1.81l14.28-8.33c9.55-5.57,19.67-9.48,30.19-12.9,20.04-6.51,40.91-4.86,58.09,7.5,5.43,3.91,9.79,8.8,12.53,14.86,2.39,5.29,2.67,11.03,2.23,16.72-.4,5.13-1.99,10.07-4.69,14.45-3.85,6.25-8.57,11.67-13.58,17.17-13.26,14.54-40.73,29.18-60.12,26.95l-35.74-4.11-27.62-3.5-10.8-1.4c-15.68-2.04-28.6,4.73-44.8,3.56-5.39-.39-10.47-2.74-14.47-6.37ZM99.85,311.18c3.47-.57,6.7.17,9.88-.35l11.45-1.87c8.16-1.34,16.11-1.73,24.46-.64l31.56,4.1,38.59,4.41c17.5,2,41.03-10.47,53.76-22.47l6-6.56c3.36-3.67,6.19-7.48,9.04-11.53,1.61-2.28,2.89-4.19,3.68-6.93,2.27-7.84,2.41-16.65-2.15-23.57-3.83-5.81-8.88-10.26-15.22-13.49-6.8-3.46-14.34-5.98-22.14-6.38-7.78-.39-15.69.37-23.14,2.73-8.81,2.8-17.19,6.01-25.47,10l-18.58,10.84c-5.91,3.45-12.03,5.4-19,5.44-4.99.03-9.58-1-14.52-1.85l-29.94-5.15c-1.59-.27-2.65.36-4.07.54l-6.4.82c-5.61,1.16-10.97,3.33-15.68,6.61-5.83,4.06-12.09,11.83-15.92,18.01-.84,1.36-2.38,2.42-2.75,4.12-1.42,6.55,3.98,19.28,6.97,22.31l6.01,6.1c2.39,2.43,9.96,5.33,13.57,4.74Z"/>
      <path class="st1" d="M244.08,526.55c-7.74,6.22-18.91,11.14-28.6,9.69-5.94-.89-10.35-4.8-12.13-10.5-2.13-6.81-2.85-13.93-.66-20.88,2.45-7.76,9.94-11.4,17.86-12.22l19.48-2.02c7.8-.81,15.1-3.38,22.29-6.24,1.62-.64,2.41-1.86,3.7-2.87,4.62-3.6,10.26-5.74,15.97-6.8,2.95-.55,5.36.15,7.97,1.11,3.21,1.18,5.01,3.66,5.01,7.22,0,3.2-1.48,5.79-3.49,8.26-2.53,3.1-5.86,5.08-9.32,7.19l-13.53,8.21-5.12,4.23-19.43,15.6ZM211.2,529.37c3.51,2.19,7.28,2.38,11.09,1.73,7.81-1.32,14.17-5.24,20.21-10.14l20.7-16.8c5.55-4.5,11.74-7.62,17.82-11.17s11.9-10.65,7.14-12.6c-1.62-.67-4.07-1.12-5.81-.27l-7.61,3.72c-11.65,7.15-27.04,11.93-40.72,12.56l-9.08.92c-4.29.43-8.37,1.27-12.24,3.08-8.17,3.8-7.78,21.57-1.51,28.98Z"/>
      <path class="st1" d="M712.05,407.63l-4.41.02c-4.25.02-7.92-.88-11.73-2.42-6.21-2.52-9.69-8.22-8.79-14.97.96-7.18,7.36-12.7,13.83-16,8.18-4.16,17.15-5.88,26.41-6.11,6.89-.17,16.18,1.72,21.01,6.31,2.98,2.83,3.05,7.07,1.11,10.44l-2.67,4.66c-2.6,3.5-5.88,6.14-9.49,8.64-5.92,4.12-18.23,9.39-25.28,9.42ZM715.82,401.86c8.87-2.2,16.84-6.19,23.65-11.98,2.61-2.22,7.29-8.31,5.99-11.16-1.66-1.77-3.65-2.74-5.87-3.18l-6.8-1.33c-10.6-2.08-26,.91-34.48,7.96-4.93,3.09-7.08,7.16-6.28,12.98,1.58,3.25,4.38,5.26,7.8,6.2,5.22,1.44,10.39,1.9,15.98.51Z"/>
      <path class="st1" d="M436.43,469.49c-2.88,8.94-10.48,14.73-18.73,16.54-9.48,2.09-19.13-1.3-25.08-8.65-3.88-4.78-5.54-10.82-4.84-17.02,1.66-14.73,16.07-24.5,30.53-21.61,14.69,2.93,22.49,17.18,18.12,30.74ZM412.92,481.55c9.01-.45,16.22-6.44,18.72-14.69,2.98-9.84-2.54-19.85-12.44-22.66-5.65-1.6-11.65-.69-16.67,2.43-6.69,4.17-10.78,11.77-9.4,19.7,1.63,9.34,10.11,15.71,19.78,15.22Z"/>
      <path class="st1" d="M234.13,291.97c-11.58,5.88-24.44,8.22-37.28,5.92-8.15-1.46-16.27-6.37-22.91-11.37-2.62-1.97-5.18-4.88-5-8.32.39-7.41,4.63-13.37,9.81-18.17,5.19-4.81,10.37-8.54,16.81-11.53,10.32-4.79,20.72-8.79,31.97-11.08,13.97-2.84,32.11-5.54,43.69,2.64,6.6,4.66,6.42,11.54,2.24,18.33-5.28,8.58-11.89,16.49-20.01,22.49-6.17,4.56-12.56,7.66-19.31,11.09ZM234.81,285.42c6.16-2.63,14.76-7.42,19.19-11.9l4.22-4.26c4.52-4.56,11.46-12.93,12.99-18.62.77-2.85-.89-5.81-3.61-7.37-10.55-6.03-28.23-3.11-40.57-.47-5.11,1.09-9.73,2.68-14.61,4.4-4.26,1.5-8.21,3.01-12.23,5.16-3.77,2.02-8.14,3.11-11.35,6.03l-9.28,8.45c-3.14,2.85-4.66,6.99-5.58,10.99-.33,1.43.32,2.51,1.38,3.29l6.28,4.64c15.87,11.73,36.64,9.45,53.16-.32Z"/>
      <g>
        <path class="st1" d="M674.11,257.96l1.29-.09c9.39.81,19.19,5.09,26.11,11.84,5.81,5.67,12.1,13.29,12.15,21.29l.02,3.69-.08,1.95c-.33.38-.32.84-.33,1.27l-.04,1.16c-.29.13-.44.55-.41.84.15,1.26-.88,2.32-1.22,3.53-.88,3.05-2.38,5.52-3.78,8.33-2.83,5.71-6.49,10.73-11.05,15.21l-6.33,6.22c-7.65,7.52-16.23,13.39-25.59,18.71l-7.74,4.4c-5.01,2.85-14.5,4.58-20.57,3.7-9.53-1.38-18.6-5-26.44-10.56-4.41-3.13-8.95-5.79-12-10.24l-2.85-4.16c-3.19-6.81-4.62-14.85-3.2-22.52,1.38-7.46,5.35-13.86,10.27-19.49,11.97-13.69,24.56-19.75,40.75-27.03,4.9-2.2,9.52-4.36,14.69-5.82,5.46-1.54,10.83-2.59,16.34-2.24ZM647.81,354.04c4.25-.53,7.74-2.73,11.1-4.76l11.6-6.97,5.05-3.4,6.2-5.18c6.33-5.29,12.01-11,17.17-17.48,3.46-4.34,8.72-15.05,9.66-20.22,1.11-6.15-.82-11-4.52-16.02-6-8.15-14.31-14.22-24.33-16.42-11.2-2.45-21.89,1.51-32.04,6.19l-10.55,4.87c-7.37,3.4-14.5,7.02-20.79,12.26-7.76,6.47-15.71,14.35-18.7,24.05-2.23,7.24-.9,15.19,2.27,21.88,3.28,6.92,14.15,13.92,21.4,17.44,4.69,2.28,9.97,3.86,15.25,4.4,3.66.37,7.5-.17,11.22-.63Z"/>
        <path class="st1" d="M643.81,344.79c-5,2.22-9.63,2.89-14.88,2.66-9.24-.39-17.08-4.91-21.8-12.87-6.22-10.48-3.42-18.13,3.32-27.35,2.57-3.51,5.05-6.92,8.38-9.77,6.68-5.71,13.61-8.44,22.63-7.74,7.26.56,13.5,4.02,19.35,8.16,3.8,2.69,7.15,6.11,8.04,10.82,1.4,7.45-1.23,14.39-5.41,20.47-4.88,7.09-11.63,12.05-19.63,15.61ZM651.49,333.95c4.76-3.04,7.64-7.89,10.31-12.44,1.26-2.14,1.59-4.2,2.08-6.55.91-4.41-.28-8.5-4-11.41-4.42-3.46-9.46-6.57-15.06-8.16-4.76-1.35-10.09-.74-14.66.87-8.28,2.93-17.07,15.06-20.71,23.25-1.74,3.92-.39,8.13,1.46,11.6,3.42,6.43,9.08,10.22,16.31,10.99,4.86.52,9.57-.06,13.99-2.5l10.28-5.66Z"/>
        <path class="st1" d="M631.16,334.6c-5.87,1.59-11.61-.09-14.81-5.17-3.52-5.59-.37-10.58,3.99-15.12,5.83-6.06,14.83-9.07,21.34-3.74,3.58,2.93,5.25,7.26,3.66,11.97-2.1,6.18-7.74,10.31-14.18,12.06ZM630.93,329.22c4.07-1.76,7.44-3.99,9.36-7.9,1.15-2.34.84-4.81-1.39-6.46-2.44-1.81-5.99-2.36-8.89-1-4.41,2.06-9.24,6.71-10.37,11.37,1.95,4.65,6.81,5.93,11.29,3.99Z"/>
      </g>
    </g>
  </g>
</svg>
